<svg xmlns="http://www.w3.org/2000/svg" width="1200" height="1200" viewBox="0 0 1200 1200"><defs><linearGradient id="bg" x1="0" y1="0" x2="1" y2="1"><stop stop-color="#061524"/><stop offset="1" stop-color="#0b3557"/></linearGradient><linearGradient id="red" x1="0" y1="0" x2="1" y2="0"><stop stop-color="#c90000"/><stop offset="1" stop-color="#f22"/></linearGradient><linearGradient id="metal" x1="0" y1="0" x2="1" y2="1"><stop stop-color="#f7f9fb"/><stop offset=".55" stop-color="#b8c1ca"/><stop offset="1" stop-color="#7e8993"/></linearGradient></defs><rect width="1200" height="1200" fill="url(#bg)"/><rect width="1200" height="190" fill="#071b2d"/><text x="45" y="65" fill="#fff" font-family="Arial,sans-serif" font-weight="900" font-size="42">SERVICE</text><text x="45" y="112" fill="#08a6ff" font-family="Arial,sans-serif" font-weight="900" font-size="47">ELECTRIC</text><text x="48" y="142" fill="#fff" font-family="Arial,sans-serif" font-size="19">by Cezar Gălățanu</text><rect x="955" y="25" width="205" height="112" rx="8" fill="#0753aa"/><text x="1058" y="85" text-anchor="middle" fill="#fff" font-family="Arial,sans-serif" font-size="42" font-weight="700">Nice</text><text x="1058" y="113" text-anchor="middle" fill="#fff" font-family="Arial,sans-serif" font-size="16">Home Automation</text><text x="45" y="177" fill="#fff" font-family="Arial,sans-serif" font-size="18" letter-spacing="3">SOLUȚII COMPLETE PENTRU CASA TA!</text><polygon points="0,205 690,205 625,310 0,310" fill="url(#red)"/><text x="330" y="280" text-anchor="middle" fill="#fff" font-family="Arial,sans-serif" font-size="61" font-weight="900">SUPER OFERTĂ</text><rect x="95" y="310" width="450" height="54" fill="#fff"/><text x="320" y="347" text-anchor="middle" fill="#101820" font-family="Arial,sans-serif" font-size="30" font-weight="900">LUNA SEPTEMBRIE</text><text x="45" y="425" fill="#08a6ff" font-family="Arial,sans-serif" font-size="55" font-weight="900">Nice</text><text x="190" y="425" fill="#fff" font-family="Arial,sans-serif" font-size="47" font-weight="900">Robus 600 HS</text><text x="45" y="462" fill="#fff" font-family="Arial,sans-serif" font-size="26">Automatizare poartă culisantă până la 600 kg / 8 m</text><g fill="#fff" font-family="Arial,sans-serif"><text x="55" y="525" font-size="24" font-weight="700">⚡ Motor Hi-Speed 24V</text><text x="55" y="565" font-size="24" font-weight="700">📱 Wi-Fi integrat</text><text x="55" y="605" font-size="24" font-weight="700">🔗 BlueBUS</text><text x="55" y="645" font-size="24" font-weight="700">🛡 Fotocelule de siguranță</text><text x="55" y="685" font-size="24" font-weight="700">🎮 2 telecomenzi incluse</text><text x="55" y="725" font-size="24" font-weight="700">💡 Lampă de semnalizare</text><text x="55" y="765" font-size="24" font-weight="700">⚙ Montaj și programare incluse</text></g><ellipse cx="850" cy="820" rx="265" ry="45" fill="#000" opacity=".35"/><g transform="translate(665 515)"><path d="M45 120 Q45 75 95 65 L335 65 Q380 72 385 120 L385 355 L55 355Z" fill="url(#metal)" stroke="#dce3e8" stroke-width="5"/><rect x="80" y="270" width="280" height="92" rx="15" fill="#9aa6b0"/><circle cx="85" cy="220" r="24" fill="#3b454e"/><circle cx="85" cy="220" r="10" fill="#111"/><rect x="155" y="185" width="170" height="34" rx="7" fill="#e31919"/><text x="240" y="209" text-anchor="middle" fill="#fff" font-family="Arial" font-size="16" font-weight="700">Nice Hi-Speed</text><text x="220" y="150" text-anchor="middle" fill="#fff" font-family="Arial" font-size="32" font-weight="700">Nice</text></g><g transform="translate(930 555)"><rect width="70" height="105" rx="12" fill="#171d22" stroke="#eee" stroke-width="4"/><circle cx="35" cy="43" r="7" fill="#ddd"/><circle cx="35" cy="67" r="7" fill="#ddd"/><rect x="105" width="70" height="105" rx="12" fill="#171d22" stroke="#eee" stroke-width="4"/><circle cx="140" cy="43" r="7" fill="#ddd"/><circle cx="140" cy="67" r="7" fill="#ddd"/></g><rect x="960" y="700" width="120" height="90" rx="10" fill="#edf2f5" stroke="#fff" stroke-width="5"/><path d="M980 790 L1060 790 L1075 820 L965 820Z" fill="#8d9aa4"/><g fill="#111"><rect x="690" y="900" width="390" height="12" rx="6"/><rect x="690" y="935" width="390" height="12" rx="6"/><rect x="690" y="970" width="390" height="12" rx="6"/></g><rect x="35" y="845" width="500" height="185" rx="22" fill="url(#red)"/><text x="285" y="930" text-anchor="middle" fill="#fff" font-family="Arial,sans-serif" font-size="72" font-weight="900">3.790 LEI</text><text x="285" y="992" text-anchor="middle" fill="#fff" font-family="Arial,sans-serif" font-size="29" font-weight="900">KIT + MONTAJ INCLUS</text><text x="55" y="1080" fill="#fff" font-family="Arial,sans-serif" font-size="23" font-weight="700">0733 928 730</text><text x="55" y="1116" fill="#9edaff" font-family="Arial,sans-serif" font-size="20">www.service-electric.ro</text><text x="650" y="1090" fill="#fff" font-family="Arial,sans-serif" font-size="19" font-weight="700">GARANȚIE 2 ANI • BOTOȘANI ȘI ÎMPREJURIMI</text></svg>